<svg xmlns="http://www.w3.org/2000/svg" viewBox="0 0 142.44 252.26"><defs><style>.cls-1{fill:#0a37ff;}.cls-2{fill:#0a70ff;}</style></defs><g id="Camada_2" data-name="Camada 2"><g id="Camada_4_cópia" data-name="Camada 4 cópia"><path class="cls-1" d="M0,234.88A79.77,79.77,0,0,0,12.52,243a83.52,83.52,0,0,0,64.19,5.13c23.94-8,43.41-27,54.26-49.8s13.49-48.95,10.07-73.94c-4.46-32.53-19.57-64.16-44.67-85.33-1.16-1-2.33-1.92-3.53-2.84t0,0C68,17,34.36,8.74,4.29,17.45c-1.44.42-2.88.88-4.29,1.38V234.88Z"/></g><g id="Camada_4" data-name="Camada 4"><path class="cls-2" d="M116,184.32c-10.85,22.77-30.32,41.84-54.26,49.8A83.62,83.62,0,0,1,0,230.23V1.08c28.63-4.47,59.08,5.18,81.37,24A112.46,112.46,0,0,1,92.81,36.18s0,0,0,0c18.28,20.36,29.47,46.95,33.2,74.17C129.46,135.37,126.82,161.54,116,184.32Z"/></g></g></svg>