<svg xmlns="http://www.w3.org/2000/svg" viewBox="0 0 1729.01 338.22"><defs><style>.cls-1{fill:#0a37ff;}.cls-2{fill:#0a70ff;}</style></defs><g id="Camada_2" data-name="Camada 2"><g id="Camada_3" data-name="Camada 3"><path class="cls-1" d="M1729,.2l0,338c-5.08-2.84-10-5.9-14.75-9.19-45.65-31.74-80.84-72.49-134-96.88-55.42-25.39-123.29-29.77-188.35-31.13-373.48-7.81-746.7,61.78-1118.44,34-64.74-4.85-131.57-13.34-185-40.91S-1.29,115.06,18.49,69c13.72-32,45-53.67,83-69Z"/></g><g id="Camada_2-2" data-name="Camada 2"><path class="cls-2" d="M1729,.1V290.69c-5.12-2.44-10.09-5.07-14.86-7.9-46-27.28-81.47-62.31-135.06-83.27-55.85-21.82-124.23-25.58-189.79-26.74C1013,166.1,636.94,226,262.38,202.11,197.15,198,129.81,190.65,75.93,167S-14.41,99,5.52,59.41C19.34,31.92,50.88,13.27,89.11.1Z"/></g></g></svg>